<svg xmlns="http://www.w3.org/2000/svg" viewBox="0 0 100 100" width="100" height="100">
  <g fill="none" stroke="#C9A84C" stroke-linecap="round" stroke-linejoin="round">
    <polygon stroke-width="1.6"
      points="50,22 54.6,38.9 69.8,30.2 61.1,45.4 78,50 61.1,54.6 69.8,69.8 54.6,61.1 50,78 45.4,61.1 30.2,69.8 38.9,54.6 22,50 38.9,45.4 30.2,30.2 45.4,38.9"/>
    <line stroke-width="1.0" x1="50" y1="22" x2="50" y2="0"/>
    <line stroke-width="1.0" x1="78" y1="50" x2="100" y2="50"/>
    <line stroke-width="1.0" x1="50" y1="78" x2="50" y2="100"/>
    <line stroke-width="1.0" x1="22" y1="50" x2="0" y2="50"/>
    <line stroke-width="1.0" x1="69.8" y1="30.2" x2="100" y2="0"/>
    <line stroke-width="1.0" x1="69.8" y1="69.8" x2="100" y2="100"/>
    <line stroke-width="1.0" x1="30.2" y1="69.8" x2="0" y2="100"/>
    <line stroke-width="1.0" x1="30.2" y1="30.2" x2="0" y2="0"/>
    <circle cx="50" cy="0" r="2.2" fill="#C9A84C" stroke="none"/>
    <circle cx="100" cy="50" r="2.2" fill="#C9A84C" stroke="none"/>
    <circle cx="50" cy="100" r="2.2" fill="#C9A84C" stroke="none"/>
    <circle cx="0" cy="50" r="2.2" fill="#C9A84C" stroke="none"/>
  </g>
</svg>
